# xmcd CD database file
#
# Track frame offsets:
#	150
#	17699
#	34649
#	69577
#	89231
#	116421
#	137996
#	154480
#	172258
#	196085
#	222839
#	258059
#	281438
#	299210
#
# Disc length: 4322 seconds
#
# Revision: 7
# Processed by: cddbd v1.5.2PL0 Copyright (c) Steve Scherf et al.
# Submitted via: CDex 1.70beta2
#
DISCID=da10e00e
DTITLE=MANOWAR - BEST OF - MANOWAR - The Hell of Steel
DYEAR=1994
DGENRE=Metal
TTITLE0=Fighting The World
TTITLE1=Kings Of Metal
TTITLE2=The Demon's Whip
TTITLE3=The Warriors Prayer
TTITLE4=Defender
TTITLE5=The Crown And The Ring
TTITLE6=Blow Your Speakers
TTITLE7=Metal Warriors
TTITLE8=Black Wind, Fire And Steel
TTITLE9=Hail And Kill
TTITLE10=The Power Of Thy Sword
TTITLE11=Herz Aus Stahl
TTITLE12=Kingdom Come
TTITLE13=Master Of The Wind
EXTD=YEAR: 1994
EXTT0=
EXTT1=
EXTT2=
EXTT3=
EXTT4=
EXTT5=
EXTT6=
EXTT7=
EXTT8=
EXTT9=
EXTT10=
EXTT11=
EXTT12=
EXTT13=
PLAYORDER=
